<svg width="143" height="27" viewBox="0 0 143 27" fill="none" xmlns="http://www.w3.org/2000/svg">
<g clip-path="url(#clip0_88887_113)">
<path d="M1.78783 24.4381C0.522508 22.6066 -0.105608 20.4106 2.82917e-05 18.1878V8.92382C-0.1532 6.67709 0.435585 4.44218 1.67609 2.56183C2.9052 1.11085 4.80474 0.441162 7.59818 0.441162C10.3916 0.441162 12.1794 1.11085 13.2968 2.3386C14.5099 3.89364 15.1066 5.84078 14.9728 7.80768V10.04H9.49771V7.47284C9.54193 6.71359 9.42778 5.95344 9.1625 5.24056C9.0207 4.95281 8.79596 4.71401 8.51719 4.55488C8.23841 4.39576 7.91835 4.32359 7.59818 4.34765C6.81601 4.34765 6.25733 4.57088 6.03385 5.12894C5.78108 5.92199 5.66766 6.75276 5.69864 7.58445V19.5271C5.63963 20.334 5.79375 21.1423 6.14559 21.871C6.36906 22.4291 6.92775 22.6523 7.70991 22.6523C8.49208 22.6523 8.93903 22.4291 9.1625 21.871C9.41655 21.1167 9.53016 20.3223 9.49771 19.5271V16.8484H14.9728V19.0807C15.0865 21.0797 14.4932 23.055 13.2968 24.6614C12.1794 26.0007 10.2799 26.6704 7.59818 26.6704C4.91648 26.5588 2.9052 25.8891 1.78783 24.4381Z" fill="#111111"/>
<path d="M21.5653 0.775879H27.9344L32.6273 26.2238H27.4874L26.5935 20.8664H22.9062L22.0123 26.2238H16.7606L21.5653 0.775879ZM26.1466 17.518L24.8057 7.58433L23.4649 17.518H26.1466Z" fill="#111111"/>
<path d="M36.5382 5.01721H32.7391V0.775879H46.0358V4.90559H42.2368V26.2238H36.5382V5.01721Z" fill="#111111"/>
<path d="M56.2039 0.775879H66.0368V3.45461H59.6678V11.8257H64.8077V14.3928H59.6678V23.7683H66.0368V26.3355H56.0922V0.775879H56.2039Z" fill="#111111"/>
<path d="M68.942 0.775879H71.4002L78.6632 17.6296V0.775879H81.5684V26.2238H79.3336L71.9589 8.81208V26.2238H68.942V0.775879Z" fill="#111111"/>
<path d="M84.9205 0.775879H94.7534V3.45461H88.3843V11.8257H93.5243V14.3928H88.3843V23.7683H94.7534V26.3355H84.9205V0.775879Z" fill="#111111"/>
<path d="M97.6585 0.775874H102.798C104.82 0.636359 106.83 1.18735 108.497 2.33847C109.726 3.34299 110.285 5.12882 110.285 7.47271C110.285 10.7095 109.279 12.7186 107.156 13.3882L110.732 26.1122H107.268L103.916 14.1695H101.122V26.1122H97.5468V0.775874H97.6585ZM102.575 11.714C103.727 11.8089 104.875 11.4925 105.815 10.8211C106.486 10.2631 106.821 9.14691 106.821 7.47271C106.852 6.64101 106.739 5.81024 106.486 5.0172C106.234 4.44814 105.802 3.9775 105.257 3.67784C104.487 3.32753 103.642 3.1741 102.798 3.23138H101.234V11.6024H102.575V11.714Z" fill="#111111"/>
<path d="M114.754 24.3264C113.593 22.3749 113.048 20.1188 113.19 17.8528V9.37017C113.162 7.75271 113.35 6.13877 113.749 4.57078C114.123 3.39907 114.868 2.38056 115.872 1.66882C117.119 0.931132 118.559 0.581418 120.006 0.66429C122.353 0.66429 124.029 1.22236 125.034 2.45011C126.191 4.07129 126.744 6.04529 126.599 8.03081V8.92372H123.246V8.14242C123.251 7.20765 123.177 6.27415 123.023 5.35207C122.929 4.76939 122.607 4.24769 122.129 3.90109C121.501 3.48931 120.756 3.29338 120.006 3.34302C119.205 3.29174 118.412 3.52938 117.771 4.01271C117.508 4.23394 117.294 4.50644 117.14 4.81351C116.986 5.12058 116.897 5.45577 116.877 5.79853C116.73 6.79634 116.655 7.80351 116.654 8.81211V18.2993C116.572 19.7447 116.8 21.1909 117.324 22.5406C117.771 23.4335 118.665 23.7684 120.006 23.7684C120.535 23.8343 121.073 23.7423 121.55 23.5039C122.027 23.2656 122.423 22.8916 122.688 22.429C123.278 21.0176 123.545 19.4922 123.47 17.9644V16.1786H120.229V13.6115H126.71V26.2239H124.476L124.14 23.3219C123.847 24.2945 123.237 25.1413 122.407 25.7278C121.577 26.3143 120.575 26.6068 119.559 26.5587C118.636 26.613 117.714 26.4374 116.875 26.0478C116.036 25.6582 115.308 25.0667 114.754 24.3264Z" fill="#111111"/>
<path d="M133.861 17.2947L128.386 0.887451H131.738L135.649 13.165L139.448 0.887451H142.8L137.325 17.2947V26.2238H133.973V17.2947H133.861Z" fill="#111111"/>
</g>
<defs>
<clipPath id="clip0_88887_113">
<rect width="142.8" height="26.1176" fill="white" transform="translate(0 0.441162)"/>
</clipPath>
</defs>
</svg>
